<svg width="113" height="110" viewBox="0 0 113 110" fill="none" xmlns="http://www.w3.org/2000/svg">
<g clip-path="url(#clip0_1_2)">
<path d="M45.5767 0.201279C44.4062 0.415413 43.0584 0.700912 42.5619 0.879356C42.0653 1.0578 40.9658 1.41468 40.0791 1.6645C39.1924 1.91431 37.5963 2.59239 36.5323 3.1634C30.9638 6.12553 27.2396 10.2297 23.0543 18.0454L21.3873 21.0789L19.6494 21.3644C14.7548 22.1138 12.6267 22.9704 9.32814 25.3972C7.30645 26.9318 5.03649 30.1794 4.22072 32.6776C3.65323 34.5333 3.61776 39.2442 4.14978 40.7431C4.36259 41.3141 4.82368 42.7059 5.17836 43.8123L5.81679 45.8465L4.71727 47.3811C1.4542 51.9849 0 57.1954 0 64.4401C0 68.687 0.106405 69.5435 0.886706 71.7205C3.22761 78.18 8.05129 83.3191 15.5351 87.2091C20.2524 89.6716 27.0977 91.92 29.9352 91.92C33.9431 91.92 35.0071 86.4597 31.283 84.8894C30.5736 84.6039 28.8357 84.0329 27.4524 83.676C20.5716 81.8559 13.7262 77.8588 10.7469 73.8974C7.51926 69.6505 6.8099 66.046 7.98035 59.4794C8.61878 55.6965 10.1084 52.5559 12.0237 50.7001C13.7617 49.0228 14.6484 47.5239 14.6129 46.2391C14.6129 45.7394 13.939 44.0978 13.1232 42.5632C10.7114 38.1022 10.7823 34.8188 13.3361 32.1779C15.606 29.8582 18.0179 29.0374 22.877 28.966C25.7854 28.9303 27.0623 28.2165 27.7007 26.2537C28.5519 23.6484 31.3539 18.3666 33.1273 16.0468C36.3904 11.7286 40.221 9.2304 45.3993 8.08838C47.5274 7.58874 53.1669 7.58874 54.6565 8.08838C58.7354 9.40884 62.1758 11.8713 64.5167 15.0833C65.8645 16.9747 67.1413 17.1175 71.7877 15.9398C75.9729 14.8691 81.435 14.4409 85.0883 14.8691C90.373 15.5115 93.8844 17.1889 96.8283 20.4365C99.4884 23.4343 100.162 25.5042 100.162 30.7147C100.198 35.14 99.6657 37.5668 97.8568 41.4925C96.6864 44.0621 97.112 45.561 99.5948 47.5595C101.297 48.9514 104.277 52.8771 104.88 54.5187C105.518 56.3388 105.412 60.7642 104.667 63.0125C102.645 69.0795 97.1829 75.2893 89.2026 80.4998C87.642 81.499 86.0814 82.6054 85.7622 82.8909C84.9109 83.676 84.5917 85.6389 85.1237 86.9593C86.1878 89.4932 88.7415 89.7787 92.04 87.7445C95.6223 85.5318 99.0273 82.8909 102.361 79.6789C107.327 74.9324 109.987 70.8639 111.973 64.9754C113.215 61.2995 113.356 55.3753 112.257 52.4845C111.264 49.8793 109.774 47.4168 107.752 45.0614C105.837 42.8487 105.802 42.5989 106.759 39.2799C106.972 38.4947 107.398 36.2464 107.717 34.2835C108.178 31.2857 108.214 30.2151 107.859 27.5028C107.362 23.8626 107.114 23.0417 105.553 19.9012C103.035 14.7621 98.3534 10.7293 92.7494 8.83783C86.2587 6.69653 81.435 6.5181 71.7168 8.08838L69.0921 8.51663L67.4606 6.91067C64.1975 3.80579 60.6861 1.80725 56.7492 0.772293C53.9117 0.0585251 48.4141 -0.226974 45.5767 0.201279Z" fill="url(#paint0_linear_1_2)"/>
<path d="M61.4664 28.0024C58.8773 28.6805 56.1462 31.7854 55.7915 34.4263C55.4368 36.9245 55.9689 38.7802 57.494 40.8502L58.9127 42.7416L57.6004 50.486C56.8556 54.7329 56.2171 58.8013 56.1107 59.5151C55.8979 61.3709 55.295 61.2995 51.4999 59.0155C41.817 53.234 41.6397 53.0912 41.1431 50.7715C40.8949 49.451 40.3628 48.3447 39.5116 47.3454C37.7737 45.3112 36.1776 44.6331 33.1628 44.6331C31.0702 44.6331 30.4317 44.8115 29.2258 45.5967C26.7785 47.2027 25.5371 49.4867 25.5371 52.4488C25.5371 55.7678 26.9204 58.0162 29.8997 59.6222C31.8859 60.6571 34.4751 60.7999 36.2485 59.9433L37.4544 59.3723L45.0447 64.0118C49.2299 66.5457 53.025 68.9368 53.4506 69.2937C54.1955 69.936 54.2309 70.1145 53.9117 72.113C53.0605 77.3949 50.1166 95.0249 48.9107 101.948C48.1659 106.409 48.1659 106.481 48.8043 107.837C49.691 109.621 51.8191 110.478 53.3797 109.728C55.4368 108.693 55.827 107.516 57.4585 97.0948C57.6359 95.9171 58.026 93.5973 58.3098 91.92C58.629 90.2426 59.0191 87.7445 59.2319 86.3883C59.9768 81.499 60.0832 81.3563 63.6655 79.4291C66.7867 77.7875 69.766 76.1815 74.5542 73.5762C76.8951 72.2915 76.9661 72.2915 78.2429 72.8268C81.0094 74.0045 85.0528 73.0766 87.1454 70.7926C88.245 69.6149 89.3799 66.7598 89.3799 65.2252C89.3445 63.0839 87.6775 60.1575 85.6912 58.7299C84.0597 57.5879 83.7405 57.5165 81.4351 57.5165C76.8242 57.5165 74.3059 59.8006 73.2419 64.8683C73.1355 65.4393 72.9227 65.8676 72.7453 65.8676C72.6035 65.8676 70.298 67.081 67.6379 68.5442C65.0133 70.0074 62.6369 71.2208 62.3886 71.2208C61.9275 71.2208 62.1049 68.7226 62.9206 64.6185C63.2044 63.2267 63.5945 60.9069 63.8428 59.4437C64.0556 57.9805 64.3748 56.0533 64.5522 55.1611C64.7295 54.2689 65.0487 52.4131 65.2615 51.057C66.5384 43.0985 66.5384 43.1342 67.4251 42.8487C68.4891 42.4918 70.1916 40.529 70.9719 38.8159C72.2133 35.9966 71.5749 32.6776 69.3759 30.2508C67.6734 28.3593 64.0911 27.3243 61.4664 28.0024Z" fill="url(#paint1_linear_1_2)"/>
</g>
<defs>
<linearGradient id="paint0_linear_1_2" x1="109.245" y1="92.7918" x2="18.1168" y2="9.38028" gradientUnits="userSpaceOnUse">
<stop stop-color="#FFC371"/>
<stop offset="1" stop-color="#FF5F6D"/>
</linearGradient>
<linearGradient id="paint1_linear_1_2" x1="79.7772" y1="87.2075" x2="25.9512" y2="35.9424" gradientUnits="userSpaceOnUse">
<stop stop-color="#FFC371"/>
<stop offset="1" stop-color="#FF5F6D"/>
</linearGradient>
<clipPath id="clip0_1_2">
<rect width="113" height="110" fill="white"/>
</clipPath>
</defs>
</svg>
